<svg width="512" height="512" viewBox="0 0 512 512" fill="none" xmlns="http://www.w3.org/2000/svg">
<path d="M190.599 173.883C190.047 175.174 177.361 212.319 162.191 256.615L134.704 337.063L152.539 337.361L170.282 337.56L200.711 321.172C217.351 312.134 231.233 304.785 231.509 304.785C231.785 304.785 231.969 313.525 231.969 324.152V343.519H264.972C283.083 343.519 300.183 343.122 302.849 342.526C317.559 339.546 330.521 327.628 335.761 312.333C340.634 298.23 338.519 280.353 330.705 269.328L328.406 266.051L317.926 271.711C308.365 276.876 307.629 277.472 309.192 278.664C310.204 279.458 312.134 282.14 313.513 284.723C315.72 288.596 316.088 290.483 316.088 296.342C315.995 304.288 314.708 307.764 309.56 313.127C303.953 318.987 300.551 319.682 276.832 319.682H255.871V305.48V291.377L287.772 274.095C316.456 258.602 320.225 256.317 324.821 251.252C346.793 227.515 338.151 186.397 308.733 174.479C303.401 172.294 302.022 172.195 267.179 171.897L231.05 171.599L231.877 173.883C232.336 175.174 234.543 180.637 236.841 186.1L240.978 196.031L271.133 196.528C296.965 196.925 301.746 197.223 304.136 198.713C315.812 205.665 318.202 224.734 308.549 234.467C306.251 236.851 175.154 308.261 174.511 307.565C174.143 307.168 204.941 217.484 205.584 216.789C206.228 215.994 206.504 216.59 217.259 242.711C222.408 255.225 227.004 265.951 227.372 266.349C228.384 267.639 250.631 255.324 250.08 253.735C249.804 253.039 242.082 234.368 232.888 212.121L216.064 171.698H203.745C191.886 171.698 191.427 171.798 190.599 173.883Z" fill="black"/>
<path d="M95.1701 84.4162C93.0704 87.0074 89.6207 92.6755 87.5209 96.8862C82.5714 107.413 78.0718 116.158 40.8756 185.309C37.5759 191.14 35.0262 196.646 35.0262 197.294C35.0262 197.942 33.5263 200.209 31.8765 202.152C27.8269 206.849 29.0268 211.708 33.9763 210.249C35.7761 209.764 55.8741 209.278 78.6718 209.278H119.918L123.217 202.315C127.416 193.569 132.666 183.69 136.116 178.184C140.766 170.573 139.416 169.925 117.368 169.762C97.7198 169.601 97.2699 169.601 96.82 166.038C96.52 163.77 99.3697 156.807 104.17 148.223C108.519 140.45 113.318 131.381 114.818 127.98L117.518 121.826H188.011C232.257 121.826 258.504 121.178 258.504 120.207C258.504 118.425 241.105 86.5216 237.806 82.4729C235.706 79.8817 230.756 79.7197 167.313 79.7197L99.0697 79.8817L95.1701 84.4162Z" fill="black"/>
<path d="M414.754 428.577C416.693 425.986 419.876 420.318 421.815 416.107C426.383 405.581 430.537 396.836 464.872 327.684C467.918 321.853 470.271 316.347 470.271 315.699C470.271 315.052 471.656 312.785 473.179 310.841C476.917 306.145 475.809 301.286 471.24 302.744C469.579 303.23 451.027 303.715 429.983 303.715H391.91L388.865 310.679C384.988 319.424 380.142 329.303 376.958 334.81C372.666 342.421 373.912 343.069 394.264 343.231C412.4 343.392 412.816 343.392 413.231 346.956C413.508 349.223 410.878 356.186 406.447 364.77C402.432 372.544 398.002 381.612 396.617 385.013L394.125 391.167H329.055C288.213 391.167 263.985 391.815 263.985 392.787C263.985 394.568 280.045 426.472 283.09 430.521C285.029 433.112 289.597 433.274 348.161 433.274L411.154 433.111L414.754 428.577Z" fill="black"/>
</svg>
